===================================================================================

                         	HD DESI ROCKERS RELEASES 

===================================================================================


General
Complete name                    : James.Bond-World.Is.Not.Enough[BrRip]Dual[Eng-Hindi]720p-ahl07.mkv
Format                           : Matroska
File size                        : 1.64 GiB
Duration                         : 2h 2mn
Overall bit rate                 : 1 909 Kbps
Writing application              : AVI-Mux GUI 1.17.8.3, Feb 16 201019:42:50
Writing library                  : matroska muxer by Alexander Noe, build date Feb 16 2010

Video
ID                               : 1
Format                           : AVC
Format/Info                      : Advanced Video Codec
Format profile                   : High@L4.1
Format settings, CABAC           : Yes
Format settings, ReFrames        : 3 frames
Muxing mode                      : Container profile=Unknown@4.1
Codec ID                         : V_MPEG4/ISO/AVC
Duration                         : 2h 2mn
Bit rate                         : 1 359 Kbps
Width                            : 1 280 pixels
Height                           : 540 pixels
Display aspect ratio             : 2.35:1
Frame rate                       : 25.000 fps
Color space                      : YUV
Chroma subsampling               : 4:2:0
Bit depth                        : 8 bits
Scan type                        : Progressive
Bits/(Pixel*Frame)               : 0.079
Stream size                      : 1.17 GiB (71%)
Language                         : English
Color primaries                  : BT.709-5, BT.1361, IEC 61966-2-4, SMPTE RP177
Transfer characteristics         : BT.709-5, BT.1361
Matrix coefficients              : BT.709-5, BT.1361, IEC 61966-2-4 709, SMPTE RP177

Audio #1
ID                               : 2
Format                           : MPEG Audio
Format version                   : Version 1
Format profile                   : Layer 3
Mode                             : Joint stereo
Codec ID                         : A_MPEG/L3
Codec ID/Hint                    : MP3
Duration                         : 2h 2mn
Bit rate mode                    : Constant
Bit rate                         : 256 Kbps
Channel(s)                       : 2 channels
Sampling rate                    : 44.1 KHz
Video delay                      : 1s 450ms
Stream size                      : 225 MiB (13%)
Language                         : English

Audio #2
ID                               : 3
Format                           : MPEG Audio
Format version                   : Version 1
Format profile                   : Layer 3
Mode                             : Joint stereo
Codec ID                         : A_MPEG/L3
Codec ID/Hint                    : MP3
Duration                         : 2h 2mn
Bit rate mode                    : Constant
Bit rate                         : 256 Kbps
Channel(s)                       : 2 channels
Sampling rate                    : 44.1 KHz
Video delay                      : 1s 450ms
Stream size                      : 225 MiB (13%)
Language                         : Hindi

Screen Shots 
http://img718.imageshack.us/img718/9917/vlcsnap2010072616h02m58.jpg 
http://img441.imageshack.us/img441/594/vlcsnap2010072616h03m06.jpg 
http://img836.imageshack.us/img836/1731/vlcsnap2010072616h03m25.jpg 
http://img716.imageshack.us/img716/3716/vlcsnap2010072616h03m32.jpg 
http://img828.imageshack.us/img828/284/vlcsnap2010072616h03m42.jpg 
http://img185.imageshack.us/img185/5065/vlcsnap2010072616h04m09.jpg